# xmcd
#
# Track frame offsets:
#	150
#	9760
#	22012
#	32187
#	45439
#	58416
#	75280
#	91188
#	104536
#	115438
#	129919
#	137269
#	155264
#
# Disc length: 2283 seconds
#
# Revision: 0
# Processed by: cddbd v1.5.2PL0 Copyright (c) Steve Scherf et al.
# Submitted via: EZCDAudioConverter 2.1.7.1
#
DISCID=9508e90d
DTITLE=Dot Wiggin Band - Ready! Get! Go!
DYEAR=1900
DGENRE=
TTITLE0=Banana Bike
TTITLE1=The Fella With A Happy Heart
TTITLE2=Speed Limit
TTITLE3=If I Could Be Your Hero
TTITLE4=Love At First Sight
TTITLE5=Your Best Friend
TTITLE6=Boo Hoo
TTITLE7=Eh
TTITLE8=My Cutie
TTITLE9=Speed Limit 2
TTITLE10=Wiggin Out!
TTITLE11=Just Another Crazy Day At The Farm
TTITLE12=The End Of The World
EXTD=
EXTT0=
EXTT1=
EXTT2=
EXTT3=
EXTT4=
EXTT5=
EXTT6=
EXTT7=
EXTT8=
EXTT9=
EXTT10=
EXTT11=
EXTT12=
PLAYORDER=
